<?xml version="1.0" encoding="utf-8"?>
<!-- Generator: Adobe Illustrator 15.0.0, SVG Export Plug-In . SVG Version: 6.00 Build 0)  -->
<!DOCTYPE svg PUBLIC "-//W3C//DTD SVG 1.1//EN" "http://www.w3.org/Graphics/SVG/1.1/DTD/svg11.dtd">
<svg version="1.1" id="Layer_1" xmlns="http://www.w3.org/2000/svg" xmlns:xlink="http://www.w3.org/1999/xlink" x="0px" y="0px"
	 width="171px" height="39px" viewBox="0 0 614.082 141.732" enable-background="new 0 0 614.082 141.732"
	 xml:space="preserve">
<g>
	<g>
		<path fill="#010101" d="M0.01,94.729h7.152v14.407h14.305V94.729h7.153v35.66h-7.153v-15.633H7.163v15.633H0.01V94.729z"/>
		<path fill="#010101" d="M57.386,128.909c-2.504,1.379-5.365,2.095-9.043,2.095c-8.686,0-13.743-5.007-13.743-13.642
			c0-7.613,4.036-13.896,12.21-13.896c9.758,0,12.517,6.693,12.517,15.889H41.139c0.306,4.241,3.27,6.642,7.51,6.642
			c3.321,0,6.182-1.227,8.737-2.657V128.909z M52.787,114.654c-0.204-3.32-1.737-6.182-5.568-6.182c-3.832,0-5.773,2.657-6.08,6.182
			H52.787z"/>
		<path fill="#010101" d="M65.868,105.458c2.656-1.227,6.232-1.993,9.145-1.993c8.021,0,11.342,3.321,11.342,11.086v3.372
			c0,2.656,0.051,4.649,0.102,6.59c0.051,1.993,0.154,3.832,0.307,5.875h-6.029c-0.255-1.379-0.255-3.116-0.306-3.934h-0.103
			c-1.583,2.913-5.007,4.548-8.123,4.548c-4.649,0-9.196-2.812-9.196-7.817c0-3.934,1.891-6.233,4.496-7.51s5.978-1.533,8.838-1.533
			h3.781c0-4.24-1.891-5.671-5.926-5.671c-2.913,0-5.825,1.124-8.124,2.861L65.868,105.458z M73.889,125.997
			c2.095,0,3.729-0.92,4.802-2.352c1.124-1.481,1.431-3.371,1.431-5.415h-2.963c-3.065,0-7.612,0.511-7.612,4.547
			C69.546,125.026,71.437,125.997,73.889,125.997z"/>
		<path fill="#010101" d="M93.253,92.072h6.846v38.317h-6.846V92.072z"/>
		<path fill="#010101" d="M109.551,109.085h-5.058v-5.007h5.058v-5.262l6.846-2.197v7.459h6.08v5.007h-6.08v12.262
			c0,2.249,0.613,4.342,3.218,4.342c1.227,0,2.401-0.255,3.117-0.715l0.204,5.415c-1.431,0.409-3.014,0.614-5.058,0.614
			c-5.364,0-8.328-3.321-8.328-8.532V109.085z"/>
		<path fill="#010101" d="M127.177,92.072h6.847v15.583h0.102c1.737-2.555,4.7-4.189,8.276-4.189c6.233,0,8.941,4.394,8.941,10.32
			v16.604h-6.846V116.34c0-3.219-0.051-7.561-4.445-7.561c-4.956,0-6.028,5.364-6.028,8.736v12.875h-6.847V92.072z"/>
		<path fill="#010101" d="M173.211,94.729h21.049v5.62h-13.896v8.787h12.721v5.62h-12.721v10.013h13.999v5.62h-21.151V94.729z"/>
		<path fill="#010101" d="M218.53,127.426h-0.102c-2.044,2.555-4.854,3.577-8.072,3.577c-8.073,0-11.036-6.642-11.036-13.846
			c0-7.254,2.963-13.692,11.036-13.692c3.423,0,5.824,1.175,7.868,3.679h0.102V92.072h6.846v38.317h-6.642V127.426z
			 M212.246,125.689c4.547,0,6.028-4.802,6.028-8.532c0-3.678-1.737-8.378-6.131-8.378c-4.445,0-5.671,4.854-5.671,8.378
			C206.472,120.785,207.75,125.689,212.246,125.689z"/>
		<path fill="#010101" d="M256.388,130.389h-6.488v-3.575h-0.102c-2.095,2.555-5.058,4.189-8.634,4.189
			c-6.233,0-8.941-4.395-8.941-10.32v-16.605h6.846v14.05c0,3.218,0.051,7.561,4.445,7.561c4.956,0,6.029-5.363,6.029-8.736v-12.875
			h6.846V130.389z"/>
		<path fill="#010101" d="M280.503,109.749c-1.226-0.562-2.554-0.97-4.649-0.97c-4.241,0-6.948,3.372-6.948,8.327
			c0,4.854,2.299,8.583,7.102,8.583c1.941,0,4.087-0.715,5.262-1.226l0.306,5.672c-1.992,0.611-4.036,0.868-6.846,0.868
			c-8.634,0-12.977-5.876-12.977-13.897c0-7.612,4.496-13.641,12.721-13.641c2.759,0,4.752,0.307,6.642,0.869L280.503,109.749z"/>
		<path fill="#010101" d="M287.299,105.458c2.657-1.227,6.233-1.993,9.145-1.993c8.021,0,11.342,3.321,11.342,11.086v3.372
			c0,2.656,0.051,4.649,0.102,6.59c0.052,1.993,0.153,3.832,0.307,5.875h-6.028c-0.256-1.379-0.256-3.116-0.307-3.934h-0.103
			c-1.583,2.913-5.007,4.548-8.123,4.548c-4.649,0-9.196-2.812-9.196-7.817c0-3.934,1.891-6.233,4.496-7.51s5.978-1.533,8.839-1.533
			h3.78c0-4.24-1.89-5.671-5.926-5.671c-2.912,0-5.825,1.124-8.124,2.861L287.299,105.458z M295.32,125.997
			c2.095,0,3.729-0.92,4.802-2.352c1.124-1.481,1.431-3.371,1.431-5.415h-2.963c-3.066,0-7.613,0.511-7.613,4.547
			C290.977,125.026,292.868,125.997,295.32,125.997z"/>
		<path fill="#010101" d="M316.778,109.085h-5.058v-5.007h5.058v-5.262l6.846-2.197v7.459h6.081v5.007h-6.081v12.262
			c0,2.249,0.614,4.342,3.22,4.342c1.227,0,2.4-0.255,3.116-0.715l0.204,5.415c-1.431,0.409-3.014,0.614-5.058,0.614
			c-5.364,0-8.328-3.321-8.328-8.532V109.085z"/>
		<path fill="#010101" d="M334.559,92.736h6.847v6.54h-6.847V92.736z M334.559,104.078h6.847v26.311h-6.847V104.078z"/>
		<path fill="#010101" d="M360.666,103.465c7.817,0,13.795,5.262,13.795,13.948c0,7.561-5.059,13.59-13.795,13.59
			c-8.685,0-13.742-6.029-13.742-13.59C346.924,108.728,352.901,103.465,360.666,103.465z M360.666,125.689
			c5.263,0,6.642-4.7,6.642-9.093c0-4.036-2.146-7.817-6.642-7.817c-4.444,0-6.591,3.882-6.591,7.817
			C354.075,120.938,355.455,125.689,360.666,125.689z"/>
		<path fill="#010101" d="M379.826,104.078h6.489v3.577h0.102c2.146-3.015,5.058-4.189,8.635-4.189c6.232,0,8.939,4.394,8.939,10.32
			v16.604h-6.846V116.34c0-3.219-0.051-7.561-4.445-7.561c-4.954,0-6.027,5.364-6.027,8.736v12.875h-6.847V104.078z"/>
		<path fill="#010101" d="M425.858,94.729h21.051v5.62h-13.897v8.787h12.722v5.62h-12.722v10.013h13.999v5.62h-21.152V94.729z"/>
		<path fill="#010101" d="M453.653,104.078h6.489v3.577h0.102c2.146-3.015,5.058-4.189,8.636-4.189c6.231,0,8.939,4.394,8.939,10.32
			v16.604h-6.846V116.34c0-3.219-0.052-7.561-4.445-7.561c-4.955,0-6.027,5.364-6.027,8.736v12.875h-6.848V104.078z"/>
		<path fill="#010101" d="M509.036,104.078v23.756c0,7.153-2.86,13.897-13.896,13.897c-2.708,0-5.825-0.409-9.095-1.788l0.562-5.824
			c2.096,1.124,5.519,2.299,7.664,2.299c7.561,0,7.92-5.672,7.92-10.219h-0.104c-1.277,2.249-4.343,4.189-8.175,4.189
			c-7.765,0-10.729-6.232-10.729-13.283c0-6.335,3.27-13.641,11.138-13.641c3.475,0,6.183,1.175,8.071,4.189h0.104v-3.577H509.036z
			 M502.191,116.953c0-4.496-1.738-8.174-5.724-8.174c-4.648,0-6.13,4.291-6.13,8.327c0,3.577,1.889,7.971,5.824,7.971
			C500.453,125.077,502.191,121.347,502.191,116.953z"/>
		<path fill="#010101" d="M516.241,92.072h6.846v38.317h-6.846V92.072z"/>
		<path fill="#010101" d="M531.466,105.458c2.658-1.227,6.233-1.993,9.146-1.993c8.021,0,11.343,3.321,11.343,11.086v3.372
			c0,2.656,0.05,4.649,0.102,6.59c0.052,1.993,0.153,3.832,0.306,5.875h-6.026c-0.257-1.379-0.257-3.116-0.308-3.934h-0.102
			c-1.584,2.913-5.008,4.548-8.123,4.548c-4.65,0-9.197-2.812-9.197-7.817c0-3.934,1.891-6.233,4.495-7.51
			c2.606-1.277,5.978-1.533,8.84-1.533h3.78c0-4.24-1.891-5.671-5.926-5.671c-2.912,0-5.824,1.124-8.124,2.861L531.466,105.458z
			 M539.487,125.997c2.096,0,3.73-0.92,4.804-2.352c1.124-1.481,1.43-3.371,1.43-5.415h-2.964c-3.065,0-7.612,0.511-7.612,4.547
			C535.145,125.026,537.036,125.997,539.487,125.997z"/>
		<path fill="#010101" d="M558.698,104.078h6.49v3.577h0.101c2.146-3.015,5.059-4.189,8.636-4.189c6.231,0,8.939,4.394,8.939,10.32
			v16.604h-6.846V116.34c0-3.219-0.052-7.561-4.445-7.561c-4.955,0-6.027,5.364-6.027,8.736v12.875h-6.848V104.078z"/>
		<path fill="#010101" d="M607.439,127.426h-0.102c-2.044,2.555-4.854,3.577-8.073,3.577c-8.071,0-11.035-6.642-11.035-13.846
			c0-7.254,2.964-13.692,11.035-13.692c3.425,0,5.824,1.175,7.868,3.679h0.104V92.072h6.846v38.317h-6.643V127.426z
			 M601.155,125.689c4.548,0,6.029-4.802,6.029-8.532c0-3.678-1.738-8.378-6.131-8.378c-4.445,0-5.671,4.854-5.671,8.378
			C595.383,120.785,596.66,125.689,601.155,125.689z"/>
	</g>
	<g>
		<path fill="#2160AD" d="M179.859,72.414V0H0v72.414H179.859L179.859,72.414z M72.313,6.988L59.898,65.274H40.411L28.163,24.942
			h-0.167l-8.149,40.333H5.073L17.586,6.988h19.551l12.006,40.419h0.168l8.226-40.419H72.313L72.313,6.988z M128.04,6.988
			l-12.171,58.287h-15.689l5.205-24.965H86.826l-5.205,24.965H65.926L78.103,6.988h15.689l-4.608,22.298h18.546l4.621-22.298H128.04
			L128.04,6.988z M173.122,8.577l-3.788,11.605c-3.02-1.415-7.131-2.664-12.919-2.664c-6.208,0-11.249,0.908-11.249,5.593
			c0,8.258,22.751,5.177,22.751,22.879c0,16.114-15.031,20.292-28.63,20.292c-6.043,0-13.009-1.427-18.124-3.016l3.693-11.857
			c3.099,2.008,9.316,3.346,14.431,3.346c4.875,0,12.506-0.921,12.506-6.931c0-9.358-22.751-5.848-22.751-22.288
			c0-15.039,13.27-19.546,26.114-19.546C162.378,5.99,169.175,6.746,173.122,8.577L173.122,8.577z"/>
	</g>
</g>
</svg>
