<?xml version="1.0" standalone="no"?>
<!DOCTYPE svg PUBLIC "-//W3C//DTD SVG 20010904//EN"
		"http://www.w3.org/TR/2001/REC-SVG-20010904/DTD/svg10.dtd">
<svg version="1.0" xmlns="http://www.w3.org/2000/svg"
     width="700.000000pt" height="700.000000pt" viewBox="0 0 700.000000 700.000000"
     preserveAspectRatio="xMidYMid meet">
	<metadata>
		Created by potrace 1.11, written by Peter Selinger 2001-2013
	</metadata>
	<g transform="translate(0.000000,700.000000) scale(0.100000,-0.100000)"
	   fill="#000000" stroke="none">
		<path d="M2947 6528 c-195 -42 -323 -195 -331 -396 -11 -255 158 -439 410
-448 265 -10 448 168 445 431 -1 59 -2 71 -16 130 -19 79 -102 185 -179 230
-92 52 -231 75 -329 53z"/>
		<path d="M3965 6525 c-33 -8 -78 -23 -101 -34 -89 -44 -176 -147 -205 -244
-17 -53 -19 -188 -5 -247 35 -149 134 -254 281 -299 250 -76 509 70 553 310
15 80 7 195 -17 259 -75 197 -286 303 -506 255z"/>
		<path d="M1870 5496 c-196 -56 -313 -224 -303 -438 9 -201 132 -347 330 -392
155 -35 324 18 429 135 39 43 76 127 88 200 39 230 -85 437 -294 494 -61 16
-194 17 -250 1z"/>
		<path d="M2920 5496 c-67 -19 -127 -53 -176 -98 -169 -156 -173 -458 -8 -621
158 -156 433 -162 599 -14 95 85 137 187 134 330 -3 133 -38 218 -124 303 -76
73 -160 106 -285 110 -58 2 -113 -2 -140 -10z"/>
		<path d="M3940 5495 c-202 -63 -314 -233 -297 -450 10 -117 46 -197 124 -273
164 -158 450 -155 612 7 82 82 122 192 117 324 -7 195 -124 343 -311 393 -64
18 -187 17 -245 -1z"/>
		<path d="M4958 5491 c-79 -26 -139 -63 -185 -114 -33 -38 -79 -116 -83 -139
-1 -4 -6 -22 -11 -40 -15 -51 -12 -189 4 -246 51 -170 196 -284 376 -295 177
-12 329 66 412 210 32 55 36 68 47 148 30 208 -73 395 -255 466 -81 31 -226
36 -305 10z"/>
		<path d="M890 4458 c-78 -12 -168 -57 -228 -115 -29 -27 -52 -52 -52 -57 0 -4
-9 -20 -19 -35 -45 -63 -64 -239 -37 -339 50 -183 214 -303 413 -303 74 1 131
13 198 43 100 44 188 147 216 251 16 60 18 183 4 242 -51 217 -259 348 -495
313z"/>
		<path d="M1923 4458 c-143 -22 -250 -98 -312 -223 -86 -172 -50 -390 84 -514
201 -185 549 -135 673 96 89 167 67 380 -53 511 -92 102 -245 153 -392 130z"/>
		<path d="M5001 4454 c-209 -43 -332 -198 -332 -419 -1 -251 175 -426 426 -426
283 0 473 234 420 516 -44 235 -269 379 -514 329z"/>
		<path d="M6080 4463 c-223 -29 -372 -188 -379 -403 -8 -266 169 -451 433 -451
250 0 431 188 421 438 -4 129 -36 210 -114 291 -83 87 -239 140 -361 125z"/>
		<path d="M850 3416 c-151 -43 -252 -143 -295 -291 -22 -72 -16 -216 11 -285
34 -86 111 -178 181 -213 222 -114 498 -36 601 169 37 72 45 108 47 204 4 203
-120 367 -315 418 -53 13 -179 12 -230 -2z"/>
		<path d="M1870 3415 c-95 -26 -202 -106 -247 -186 -53 -94 -73 -261 -42 -356
49 -154 161 -256 315 -288 236 -49 454 77 510 295 76 298 -125 558 -425 549
-36 -1 -86 -8 -111 -14z"/>
		<path d="M4957 3410 c-148 -46 -250 -159 -283 -311 -6 -30 -6 -168 0 -194 21
-88 52 -145 112 -207 164 -169 473 -163 633 13 138 151 139 421 1 581 -101
117 -301 168 -463 118z"/>
		<path d="M6009 3416 c-65 -18 -144 -63 -190 -108 -163 -158 -156 -471 13 -623
198 -178 529 -136 661 83 20 31 41 77 47 102 17 63 20 183 5 244 -34 144 -149
263 -294 301 -62 16 -185 17 -242 1z"/>
		<path d="M1913 2399 c-68 -11 -173 -62 -219 -107 -135 -134 -168 -343 -82
-519 68 -139 210 -223 381 -224 253 -1 429 177 428 434 -1 272 -230 459 -508
416z"/>
		<path d="M2953 2394 c-206 -42 -329 -188 -337 -401 -7 -179 77 -324 233 -401
74 -36 77 -37 190 -37 97 1 125 4 174 24 118 47 211 149 242 268 19 71 18 212
-3 272 -70 206 -278 321 -499 275z"/>
		<path d="M3974 2394 c-233 -47 -366 -254 -325 -503 23 -143 115 -257 249 -310
69 -27 94 -32 179 -32 147 1 284 73 357 189 98 155 78 406 -42 531 -103 108
-266 157 -418 125z"/>
		<path d="M5001 2394 c-164 -34 -287 -149 -321 -299 -87 -375 249 -656 605
-507 48 20 48 20 107 72 176 155 176 470 1 630 -106 97 -247 134 -392 104z"/>
		<path d="M2973 1349 c-97 -16 -185 -60 -244 -122 -22 -23 -81 -114 -86 -132
-43 -163 -35 -281 28 -391 71 -126 211 -204 364 -204 69 -1 79 1 140 15 80 20
175 88 225 161 90 134 94 352 9 486 -89 139 -266 215 -436 187z"/>
		<path d="M3996 1348 c-129 -17 -254 -106 -309 -219 -35 -70 -38 -86 -42 -189
-5 -138 31 -236 121 -325 44 -43 132 -92 181 -101 14 -3 30 -7 34 -10 16 -9
157 -5 200 6 155 41 269 155 304 302 16 70 12 208 -8 264 -15 42 -53 106 -85
145 -28 35 -133 99 -187 114 -66 18 -137 23 -209 13z"/>
	</g>
</svg>
