<svg id="ai2html-settings" xmlns="http://www.w3.org/2000/svg" viewBox="0 0 181.77 35.52">
	<defs>
		<style>.cls-1{fill:#1d1d1b;}.cls-2{fill:#0072ba;}.cls-3{fill:#fff;}</style>
	</defs>
	<title>TIS_UI_v4b</title>
	<path class="cls-1"
	      d="M3484.68,4075h2.09l-0.88,4.21h4.21L3491,4075h2.09l-2.18,10.41h-2.09l1-4.57h-4.21l-1,4.57h-2.09Z"
	      transform="translate(-3482.5 -4053.16)"/>
	<path class="cls-1"
	      d="M3495.2,4082.15c0,1.42.76,1.94,2.13,1.94a5.63,5.63,0,0,0,2.36-.55l-0.25,1.58a8.53,8.53,0,0,1-2.45.43c-2.21,0-3.7-1.07-3.7-3.36a4.59,4.59,0,0,1,4.37-4.68c1.89,0,3.15,1,3.15,2.92a8.28,8.28,0,0,1-.19,1.72h-5.42Zm3.66-1.37a3.09,3.09,0,0,0,0-.52,1.15,1.15,0,0,0-1.27-1.28,2.2,2.2,0,0,0-2.16,1.81h3.39Z"
	      transform="translate(-3482.5 -4053.16)"/>
	<path class="cls-1"
	      d="M3506.3,4084.19h0a3,3,0,0,1-2.48,1.36,2.13,2.13,0,0,1-2.37-2.19c0-2.54,2.83-2.73,4.71-2.73h0.7a2.39,2.39,0,0,0,.06-0.66c0-.78-0.84-1-1.54-1a5.91,5.91,0,0,0-2.52.6l0.28-1.6a7.84,7.84,0,0,1,2.61-.46c1.54,0,3,.57,3,2.37,0,1-.76,4-0.94,5.49h-1.69Zm-2-.1c1.49,0,2-1,2.27-2.27h-0.7c-1,0-2.58.16-2.58,1.46A0.9,0.9,0,0,0,3504.34,4084.09Z"
	      transform="translate(-3482.5 -4053.16)"/>
	<path class="cls-1" d="M3512.09,4074.18h2l-2.37,11.19h-2Z" transform="translate(-3482.5 -4053.16)"/>
	<path class="cls-1"
	      d="M3514.65,4077.69h1.45l0.34-1.58,2.15-.7-0.49,2.28h1.79l-0.31,1.46h-1.79l-0.73,3.36a3.18,3.18,0,0,0-.09.75,0.71,0.71,0,0,0,.76.75,2.68,2.68,0,0,0,1-.18l-0.34,1.55a5.38,5.38,0,0,1-1.07.18c-1.36,0-2.31-.54-2.31-2a8.34,8.34,0,0,1,.25-1.79l0.57-2.6h-1.45Z"
	      transform="translate(-3482.5 -4053.16)"/>
	<path class="cls-1"
	      d="M3522.05,4074.18h2l-1,4.25h0a3.28,3.28,0,0,1,2.18-.93,2.32,2.32,0,0,1,2.51,2.46,8,8,0,0,1-.25,1.67l-0.81,3.73h-2l0.75-3.63a8.08,8.08,0,0,0,.22-1.61,1,1,0,0,0-1.09-1.07c-1.39,0-1.89,1.3-2.15,2.45l-0.82,3.86h-2Z"
	      transform="translate(-3482.5 -4053.16)"/>
	<path class="cls-1"
	      d="M3535.27,4075h6.13l-0.31,1.64H3537l-0.54,2.57h3.64l-0.33,1.64h-3.66l-0.61,2.92h4.12l-0.36,1.64h-6.21Z"
	      transform="translate(-3482.5 -4053.16)"/>
	<path class="cls-1"
	      d="M3550.72,4074.18l-2.07,9.49c-0.12.66-.24,1.31-0.28,1.7h-1.86l0.19-1.13h0a2.85,2.85,0,0,1-2.51,1.31c-1.82,0-2.64-1.52-2.64-3.19,0-2.3,1.25-4.85,3.86-4.85a3,3,0,0,1,2.37,1.09l1-4.42h2Zm-7.12,8c0,0.78.24,1.82,1.22,1.82,1.46,0,2.33-1.7,2.33-3.12a1.59,1.59,0,0,0-1.45-1.82C3544.28,4079.06,3543.61,4081,3543.61,4082.18Z"
	      transform="translate(-3482.5 -4053.16)"/>
	<path class="cls-1"
	      d="M3557.56,4084.27c-0.09.46-.16,0.87-0.19,1.1h-2l0.13-.75h0a3.27,3.27,0,0,1-2.18.93,2.32,2.32,0,0,1-2.51-2.46,8,8,0,0,1,.25-1.67l0.81-3.73h2l-0.75,3.63a8.07,8.07,0,0,0-.22,1.61A1,1,0,0,0,3554,4084c1.39,0,1.89-1.3,2.15-2.45l0.82-3.86h2Z"
	      transform="translate(-3482.5 -4053.16)"/>
	<path class="cls-1"
	      d="M3565.79,4079.45a2.6,2.6,0,0,0-4,2.55c0,1,.33,2,1.7,2a3.92,3.92,0,0,0,1.63-.39l-0.22,1.58a4.29,4.29,0,0,1-1.92.36,3.1,3.1,0,0,1-3.27-3.31,4.44,4.44,0,0,1,4.54-4.73,7.06,7.06,0,0,1,2,.3Z"
	      transform="translate(-3482.5 -4053.16)"/>
	<path class="cls-1"
	      d="M3571,4084.19h0a3,3,0,0,1-2.48,1.36,2.13,2.13,0,0,1-2.37-2.19c0-2.54,2.83-2.73,4.71-2.73h0.7a2.39,2.39,0,0,0,.06-0.66c0-.78-0.84-1-1.54-1a5.91,5.91,0,0,0-2.52.6l0.28-1.6a7.84,7.84,0,0,1,2.61-.46c1.54,0,3,.57,3,2.37,0,1-.76,4-0.94,5.49h-1.69Zm-2-.1c1.49,0,2-1,2.27-2.27h-0.7c-1,0-2.58.16-2.58,1.46A0.9,0.9,0,0,0,3569,4084.09Z"
	      transform="translate(-3482.5 -4053.16)"/>
	<path class="cls-1"
	      d="M3575.16,4077.69h1.45l0.34-1.58,2.15-.7-0.49,2.28h1.79l-0.31,1.46h-1.79l-0.73,3.36a3.19,3.19,0,0,0-.09.75,0.71,0.71,0,0,0,.76.75,2.68,2.68,0,0,0,1-.18l-0.34,1.55a5.38,5.38,0,0,1-1.07.18c-1.36,0-2.31-.54-2.31-2a8.34,8.34,0,0,1,.25-1.79l0.57-2.6h-1.45Z"
	      transform="translate(-3482.5 -4053.16)"/>
	<path class="cls-1" d="M3581.81,4077.69h2l-1.64,7.68h-2Zm0.73-3.31h2l-0.42,1.91h-2Z"
	      transform="translate(-3482.5 -4053.16)"/>
	<path class="cls-1"
	      d="M3592.69,4080.88a4.44,4.44,0,0,1-4.58,4.67,3.23,3.23,0,0,1-3.49-3.51,4.46,4.46,0,0,1,4.55-4.54A3.23,3.23,0,0,1,3592.69,4080.88Zm-2.09,0c0-1-.34-1.84-1.52-1.84-1.58,0-2.37,1.75-2.37,3.13a1.53,1.53,0,0,0,1.57,1.81C3589.82,4084,3590.6,4082.21,3590.6,4080.9Z"
	      transform="translate(-3482.5 -4053.16)"/>
	<path class="cls-1"
	      d="M3594.85,4078.79c0.09-.46.16-0.86,0.19-1.1h2l-0.13.75h0a3.28,3.28,0,0,1,2.18-.93,2.32,2.32,0,0,1,2.51,2.46,8,8,0,0,1-.25,1.67l-0.81,3.73h-2l0.75-3.63a8.08,8.08,0,0,0,.22-1.61,1,1,0,0,0-1.09-1.07c-1.39,0-1.89,1.3-2.15,2.45l-0.82,3.86h-2Z"
	      transform="translate(-3482.5 -4053.16)"/>
	<path class="cls-1"
	      d="M3609,4075h6.13l-0.31,1.64h-4.07l-0.54,2.57h3.64l-0.33,1.64h-3.66l-0.61,2.92h4.12l-0.36,1.64h-6.21Z"
	      transform="translate(-3482.5 -4053.16)"/>
	<path class="cls-1"
	      d="M3616.4,4078.79c0.09-.46.16-0.86,0.19-1.1h2l-0.13.75h0a3.28,3.28,0,0,1,2.18-.93,2.32,2.32,0,0,1,2.51,2.46,8,8,0,0,1-.25,1.67l-0.81,3.73h-2l0.75-3.63a8.08,8.08,0,0,0,.22-1.61,1,1,0,0,0-1.09-1.07c-1.39,0-1.89,1.3-2.15,2.45l-0.82,3.86h-2Z"
	      transform="translate(-3482.5 -4053.16)"/>
	<path class="cls-1"
	      d="M3624.37,4086.54a6.2,6.2,0,0,0,2.42.6c2.12,0,2.43-1.48,2.91-3.22h0a2.87,2.87,0,0,1-2.58,1.46c-1.86,0-2.67-1.57-2.67-3.25,0-2.3,1.4-4.61,3.89-4.61a2.66,2.66,0,0,1,2.34,1.3l0.22-1.12h1.92c-0.06.21-.15,0.58-0.25,1.07l-1.22,5.77c-0.49,2.51-1.58,4.15-4.39,4.15a8.64,8.64,0,0,1-3.07-.52Zm4.21-7.47c-1.45,0-2.07,1.9-2.07,3,0,0.93.37,1.72,1.27,1.72,1.6,0,2.25-1.69,2.25-3.15A1.46,1.46,0,0,0,3628.58,4079.06Z"
	      transform="translate(-3482.5 -4053.16)"/>
	<path class="cls-1" d="M3635.59,4074.18h2l-2.37,11.19h-2Z" transform="translate(-3482.5 -4053.16)"/>
	<path class="cls-1"
	      d="M3642.24,4084.19h0a3,3,0,0,1-2.48,1.36,2.13,2.13,0,0,1-2.37-2.19c0-2.54,2.83-2.73,4.71-2.73h0.7a2.39,2.39,0,0,0,.06-0.66c0-.78-0.84-1-1.54-1a5.91,5.91,0,0,0-2.52.6l0.28-1.6a7.84,7.84,0,0,1,2.61-.46c1.54,0,3,.57,3,2.37,0,1-.76,4-0.94,5.49H3642Zm-2-.1c1.49,0,2-1,2.27-2.27h-0.7c-1,0-2.58.16-2.58,1.46A0.9,0.9,0,0,0,3640.29,4084.09Z"
	      transform="translate(-3482.5 -4053.16)"/>
	<path class="cls-1"
	      d="M3647.08,4078.79c0.09-.46.16-0.86,0.19-1.1h2l-0.13.75h0a3.28,3.28,0,0,1,2.18-.93,2.32,2.32,0,0,1,2.51,2.46,8,8,0,0,1-.25,1.67l-0.81,3.73h-2l0.75-3.63a8.08,8.08,0,0,0,.22-1.61,1,1,0,0,0-1.09-1.07c-1.39,0-1.89,1.3-2.15,2.45l-0.82,3.86h-2Z"
	      transform="translate(-3482.5 -4053.16)"/>
	<path class="cls-1"
	      d="M3664.28,4074.18l-2.07,9.49c-0.12.66-.24,1.31-0.28,1.7h-1.86l0.19-1.13h0a2.85,2.85,0,0,1-2.51,1.31c-1.82,0-2.64-1.52-2.64-3.19,0-2.3,1.25-4.85,3.86-4.85a3,3,0,0,1,2.37,1.09l1-4.42h2Zm-7.12,8c0,0.78.24,1.82,1.22,1.82,1.46,0,2.33-1.7,2.33-3.12a1.59,1.59,0,0,0-1.45-1.82C3657.83,4079.06,3657.16,4081,3657.16,4082.18Z"
	      transform="translate(-3482.5 -4053.16)"/>
	<rect class="cls-2" x="136.96" width="43.75" height="17.71"/>
	<path class="cls-3" d="M3623.75,4054.87h4.76l2.92,9.88h0l2-9.88h3.59l-3,14.25h-4.74l-3-9.86h0l-2,9.86h-3.59Z"
	      transform="translate(-3482.5 -4053.16)"/>
	<path class="cls-3"
	      d="M3638.47,4054.87h3.82l-1.12,5.45h4.51l1.12-5.45h3.82l-3,14.25h-3.82l1.27-6.11h-4.51l-1.27,6.11h-3.82Z"
	      transform="translate(-3482.5 -4053.16)"/>
	<path class="cls-3"
	      d="M3660.66,4058.1a7.16,7.16,0,0,0-3.14-.65c-1.51,0-2.74.22-2.74,1.37,0,2,5.53,1.27,5.53,5.6,0,3.94-3.66,5-7,5a16,16,0,0,1-4.41-.74l0.9-2.9a7.43,7.43,0,0,0,3.51.82c1.18,0,3-.22,3-1.69,0-2.29-5.53-1.43-5.53-5.45,0-3.68,3.23-4.78,6.35-4.78a11.58,11.58,0,0,1,4.37.63Z"
	      transform="translate(-3482.5 -4053.16)"/>
</svg>